<svg xmlns="http://www.w3.org/2000/svg" viewBox="0 0 512 512">
  <rect width="512" height="512" fill="#0a0a14"/>
  <g transform="translate(48, 48)">
    <rect x="0"   y="0"   width="96" height="96" rx="14" fill="#ff3b6b"/>
    <rect x="104" y="0"   width="96" height="96" rx="14" fill="#3ba8ff"/>
    <rect x="208" y="0"   width="96" height="96" rx="14" fill="#3bff95"/>
    <rect x="312" y="0"   width="96" height="96" rx="14" fill="#ffd93b"/>
    <rect x="0"   y="104" width="96" height="96" rx="14" fill="#3bff95"/>
    <rect x="104" y="104" width="96" height="96" rx="14" fill="#ff3b6b"/>
    <rect x="208" y="104" width="96" height="96" rx="14" fill="#ffd93b"/>
    <rect x="312" y="104" width="96" height="96" rx="14" fill="#3ba8ff"/>
    <rect x="0"   y="208" width="96" height="96" rx="14" fill="#3ba8ff"/>
    <rect x="104" y="208" width="96" height="96" rx="14" fill="#ffd93b"/>
    <rect x="208" y="208" width="96" height="96" rx="14" fill="#3bff95"/>
    <rect x="312" y="208" width="96" height="96" rx="14" fill="#ff3b6b"/>
    <rect x="0"   y="312" width="96" height="96" rx="14" fill="#ffd93b"/>
    <rect x="104" y="312" width="96" height="96" rx="14" fill="#3bff95"/>
    <rect x="208" y="312" width="96" height="96" rx="14" fill="#ff3b6b"/>
    <rect x="312" y="312" width="96" height="96" rx="14" fill="#3ba8ff"/>
  </g>
</svg>
